<?xml version="1.0" encoding="UTF-8" standalone="no"?><!DOCTYPE svg PUBLIC "-//W3C//DTD SVG 1.1//EN" "http://www.w3.org/Graphics/SVG/1.1/DTD/svg11.dtd"><svg width="100%" height="100%" viewBox="0 0 100 100" version="1.1" xmlns="http://www.w3.org/2000/svg" xmlns:xlink="http://www.w3.org/1999/xlink" xml:space="preserve" xmlns:serif="http://www.serif.com/" style="fill-rule:evenodd;clip-rule:evenodd;stroke-linecap:round;stroke-linejoin:round;stroke-miterlimit:1.5;"><circle cx="50" cy="50" r="50" style="fill-opacity:0.39;"/><path d="M50,0c27.596,0 50,22.404 50,50c0,27.596 -22.404,50 -50,50c-27.596,-0 -50,-22.404 -50,-50c0,-27.596 22.404,-50 50,-50Zm-0,2.083c26.446,0 47.917,21.471 47.917,47.917c-0,26.446 -21.471,47.917 -47.917,47.917c-26.446,-0 -47.917,-21.471 -47.917,-47.917c0,-26.446 21.471,-47.917 47.917,-47.917Z" style="fill:#ffdc80;"/><path d="M70,50l-40,25l0,-50l40,25Z" style="fill:#ffdc80;stroke:#ffdc80;stroke-width:2.08px;"/></svg>